# xmcd
#
# Track frame offsets: 
#        2821
#        17994
#        34919
#        51218
#        65935
#        81626
#        97758
#        110121
#        122800
#        134952
#        148305
#
# Disc length: 2150 seconds
#
# Revision: 4
# Processed by: cddbd v1.5.2PL0 Copyright (c) Steve Scherf et al.
# Submitted via: ExactAudioCopyFreeDBPlugin 1.0
#
DISCID=bd08410b
DTITLE=The Dead Weather - Sea Of Cowards
DYEAR=2010
DGENRE=Garage Rock
TTITLE0=Blue Blood Blues
TTITLE1=Hustle And Cuss
TTITLE2=The Difference Between Us
TTITLE3=I'm Mad
TTITLE4=Die By The Drop
TTITLE5=I Can't Hear You
TTITLE6=Gasoline
TTITLE7=No Horse
TTITLE8=Looking At The Invisible Man
TTITLE9=Jawbreaker
TTITLE10=Old Mary
EXTD=YEAR: 2010
EXTT0=
EXTT1=
EXTT2=
EXTT3=
EXTT4=
EXTT5=
EXTT6=
EXTT7=
EXTT8=
EXTT9=
EXTT10=
PLAYORDER=
